Coordinates
version=1
nRows=11
nColumns=36
inDegrees=yes

Units are S.I. units (second, meters, Newtons, ...)
If the header above contains a line with 'inDegrees', this indicates whether rotational values are in degrees (yes) or radians (no).

endheader
time	pelvis_tilt	pelvis_list	pelvis_rotation	pelvis_tx	pelvis_ty	pelvis_tz	hip_flexion_r	hip_adduction_r	hip_rotation_r	knee_angle_r	knee_angle_r_beta	ankle_angle_r	subtalar_angle_r	mtp_angle_r	hip_flexion_l	hip_adduction_l	hip_rotation_l	knee_angle_l	knee_angle_l_beta	ankle_angle_l	subtalar_angle_l	mtp_angle_l	lumbar_extension	lumbar_bending	lumbar_rotation	arm_flex_r	arm_add_r	arm_rot_r	elbow_flex_r	pro_sup_r	arm_flex_l	arm_add_l	arm_rot_l	elbow_flex_l	pro_sup_l
     29.91666670	     -4.87441093	      1.29278505	    -11.05983284	      0.62325762	      0.90033078	      0.76264201	     -4.89785994	      0.74417760	      1.17876454	     11.00265721	      0.19203259	     22.73531591	      4.33036653	     -7.49999987	     35.13790541	     -3.69163818	     -7.88705238	     11.93139697	      0.20824216	     11.25502998	      2.41769508	     -7.49999987	     -0.07308397	      1.05208870	     11.80618433	     23.68060649	    -18.85098846	      6.30422036	     44.12367872	     77.49488947	     -7.71738939	     -7.41571235	      3.39522124	     11.15593674	     74.64299325
     29.93333330	     -4.77553859	      1.67339076	    -11.22718097	      0.62561133	      0.89841298	      0.76166690	     -5.95423048	     -0.00879178	      1.42789599	     11.89360665	      0.20758260	     23.80217546	      4.80733326	     -7.49999987	     35.30208002	     -3.34339069	     -7.72245792	     12.58917404	      0.21972254	     11.20965541	      1.75919188	     -7.49999987	      0.28630508	      0.42532027	     12.48818292	     23.29697498	    -18.80904029	      3.93249106	     45.31341035	     82.21973643	     -7.86412440	     -7.10211834	     -0.31504699	     10.31290131	     79.42841173
     29.95000000	     -4.61141813	      2.12783673	    -11.37534938	      0.62883161	      0.89771606	      0.76055644	     -6.97424719	     -0.91555778	      1.72968199	     13.02934362	      0.22740495	     24.41468161	      4.81112803	     -7.49999987	     35.26974743	     -2.86536371	     -7.75032326	     14.04414916	      0.24511664	     10.63986324	      0.55683382	     -7.49999987	      0.65777524	     -0.33754365	     12.67731607	     23.11002167	    -18.74621771	      3.61499646	     45.78598469	     82.17494931	     -8.14539662	     -7.03673518	     -0.52485280	      9.75444227	     79.40473460
     29.96666670	     -4.43589125	      2.61048052	    -11.50055933	      0.63396297	      0.89843034	      0.75863585	     -7.90464899	     -1.90324545	      2.01716098	     14.37031161	      0.25080925	     24.32930437	      4.31751310	     -7.49999987	     35.06247963	     -2.26498791	     -7.76530177	     15.94830400	      0.27835041	      9.66391370	     -0.95849708	     -7.49999987	      1.08795172	     -1.17457876	     12.96264487	     22.26065182	    -18.65265641	      3.03161150	     46.39307766	     80.54915993	     -8.03993766	     -6.95307449	     -0.74175436	      8.90406556	     77.71584185
     29.98333330	     -4.26220417	      3.13540747	    -11.56128550	      0.64193096	      0.89882887	      0.75531810	     -8.68825076	     -3.02210559	      1.96139405	     16.02543145	      0.27969654	     23.63494908	      3.93278415	     -7.49999987	     34.69955831	     -1.54866473	     -7.91987402	     18.05998687	      0.31520623	      8.78474689	     -1.59815436	     -7.49999987	      1.52902249	     -2.07084131	     12.75510245	     21.43373072	    -18.37615699	      3.02609328	     46.53493276	     80.50112651	     -8.45022498	     -7.03527809	     -0.75960673	      9.25588861	     77.66275503
     30.00000000	     -4.17097327	      3.85305287	    -11.60727179	      0.65136362	      0.89701401	      0.75098267	     -8.99693939	     -4.34850336	      2.17933561	     18.36347150	      0.32050304	     22.05652283	      2.63080389	     -7.49999987	     34.19375532	     -0.35598597	     -6.99107567	     19.77957383	      0.34521869	      6.71414108	     -4.25470427	     -7.49999987	      2.11608807	     -3.12585502	     12.68342130	     19.76953349	    -17.99212713	      2.05961495	     47.44619615	     80.68522623	     -8.23579038	     -7.00966999	     -0.84040511	      8.22658695	     77.78383593
     30.01666670	     -4.09470620	      4.60782165	    -11.46067488	      0.65948983	      0.89466609	      0.74711892	     -8.79527125	     -5.73741989	      1.91456923	     21.65290868	      0.37791455	     19.69114352	      1.53308879	     -7.49999987	     33.65060675	      0.93860016	     -6.24334484	     21.53963026	      0.37593747	      5.40775107	     -5.48880851	     -7.49999987	      2.74980044	     -4.23141770	     13.19869721	     16.89957852	    -17.61931448	     -0.78123774	     49.32515685	     80.83855243	     -7.56811007	     -7.14584298	      0.03577042	      7.36810502	     77.72814316
     30.03333330	     -3.80334694	      5.35776236	    -11.15175996	      0.66383151	      0.89525899	      0.74486227	     -8.04440216	     -7.09252230	      1.66836008	     26.14093534	      0.45624539	     15.78131636	     -0.50110296	     -7.49999987	     32.78886789	      2.34072520	     -5.40907871	     23.15946438	      0.40420891	      4.50935150	     -6.45865488	     -7.49999987	      2.97608991	     -5.36866521	     12.54781711	     15.15362861	    -16.85976770	     -1.71573916	     49.93065811	     81.29899336	     -7.34797851	     -7.37688180	      0.66900045	      7.47062998	     77.51385810
     30.05000000	     -3.40813421	      6.08848939	    -10.71858551	      0.66507254	      0.89719967	      0.74398965	     -6.41479788	     -8.36471308	      1.50466662	     31.89847377	      0.55673339	     10.14206986	     -3.16655236	     -7.49999987	     31.63777060	      3.78171458	     -4.56971423	     24.45513647	      0.42682265	      4.01531685	     -7.25181552	     -7.49999987	      2.91910649	     -6.51529742	     11.76440632	     13.38093782	    -16.01661044	     -2.42024354	     50.33458446	     81.07291048	     -6.80655905	     -7.68910896	      1.19832798	      7.88274913	     76.63486673
     30.06666670	     -2.85569647	      6.70207273	    -10.45135525	      0.66476208	      0.89973743	      0.74373542	     -3.89693420	     -9.38018875	      1.98486250	     38.66721419	      0.67487020	      2.80408361	     -6.62486307	     -7.49999987	     30.01660126	      5.03897742	     -3.89986563	     25.18229879	      0.43951403	      4.03599837	     -7.63360027	     -7.49999987	      2.49342544	     -7.50783556	     10.94294563	     11.89205387	    -15.18946602	     -2.40734898	     50.22748340	     79.87523736	     -6.08051813	     -7.98057381	      1.31830783	      8.72101819	     75.27608712
     30.08333330	     -2.04534877	      7.26975839	    -10.32937646	      0.66492114	      0.90221867	      0.74319923	     -0.92909417	    -10.28808658	      2.66614724	     45.78056494	      0.79902159	     -4.60355074	     -9.42047289	     -7.49999987	     27.70924771	      6.28783754	     -3.27973759	     24.97138506	      0.43583289	      4.23736391	     -7.98217735	     -7.49999987	      1.48139067	     -8.43393737	      9.99963169	     10.55484083	    -14.26048112	     -2.53291743	     50.12777428	     80.28493966	     -5.19231853	     -8.10068740	      1.52572491	      9.88112131	     75.44893696
